<svg width="127" height="26" viewBox="0 0 127 26" fill="none" xmlns="http://www.w3.org/2000/svg">
<g filter="url(#filter0_d_5716_1662)">
<path d="M63.5 14.4663L69.371 18L67.813 11.34L73 6.85895L66.1695 6.28105L63.5 0L60.8305 6.28105L54 6.85895L59.187 11.34L57.629 18L63.5 14.4663Z" fill="#FBB96A"/>
</g>
<g filter="url(#filter1_d_5716_1662)">
<path d="M88.5 14.4663L94.371 18L92.813 11.34L98 6.85895L91.1695 6.28105L88.5 0L85.8305 6.28105L79 6.85895L84.187 11.34L82.629 18L88.5 14.4663Z" fill="#FBB96A"/>
</g>
<g filter="url(#filter2_d_5716_1662)">
<path d="M113.5 14.4663L119.371 18L117.813 11.34L123 6.85895L116.17 6.28105L113.5 0L110.83 6.28105L104 6.85895L109.187 11.34L107.629 18L113.5 14.4663Z" fill="#FBB96A"/>
</g>
<g filter="url(#filter3_d_5716_1662)">
<path d="M13.5 14.4663L19.371 18L17.813 11.34L23 6.85895L16.1695 6.28105L13.5 0L10.8305 6.28105L4 6.85895L9.187 11.34L7.629 18L13.5 14.4663Z" fill="#FBB96A"/>
</g>
<g filter="url(#filter4_d_5716_1662)">
<path d="M38.5 14.4663L44.371 18L42.813 11.34L48 6.85895L41.1695 6.28105L38.5 0L35.8305 6.28105L29 6.85895L34.187 11.34L32.629 18L38.5 14.4663Z" fill="#FBB96A"/>
</g>
<defs>
<filter id="filter0_d_5716_1662" x="50" y="0" width="27" height="26" filterUnits="userSpaceOnUse" color-interpolation-filters="sRGB">
<feFlood flood-opacity="0" result="BackgroundImageFix"/>
<feColorMatrix in="SourceAlpha" type="matrix" values="0 0 0 0 0 0 0 0 0 0 0 0 0 0 0 0 0 0 127 0" result="hardAlpha"/>
<feOffset dy="4"/>
<feGaussianBlur stdDeviation="2"/>
<feComposite in2="hardAlpha" operator="out"/>
<feColorMatrix type="matrix" values="0 0 0 0 0 0 0 0 0 0 0 0 0 0 0 0 0 0 0.25 0"/>
<feBlend mode="normal" in2="BackgroundImageFix" result="effect1_dropShadow_5716_1662"/>
<feBlend mode="normal" in="SourceGraphic" in2="effect1_dropShadow_5716_1662" result="shape"/>
</filter>
<filter id="filter1_d_5716_1662" x="75" y="0" width="27" height="26" filterUnits="userSpaceOnUse" color-interpolation-filters="sRGB">
<feFlood flood-opacity="0" result="BackgroundImageFix"/>
<feColorMatrix in="SourceAlpha" type="matrix" values="0 0 0 0 0 0 0 0 0 0 0 0 0 0 0 0 0 0 127 0" result="hardAlpha"/>
<feOffset dy="4"/>
<feGaussianBlur stdDeviation="2"/>
<feComposite in2="hardAlpha" operator="out"/>
<feColorMatrix type="matrix" values="0 0 0 0 0 0 0 0 0 0 0 0 0 0 0 0 0 0 0.25 0"/>
<feBlend mode="normal" in2="BackgroundImageFix" result="effect1_dropShadow_5716_1662"/>
<feBlend mode="normal" in="SourceGraphic" in2="effect1_dropShadow_5716_1662" result="shape"/>
</filter>
<filter id="filter2_d_5716_1662" x="100" y="0" width="27" height="26" filterUnits="userSpaceOnUse" color-interpolation-filters="sRGB">
<feFlood flood-opacity="0" result="BackgroundImageFix"/>
<feColorMatrix in="SourceAlpha" type="matrix" values="0 0 0 0 0 0 0 0 0 0 0 0 0 0 0 0 0 0 127 0" result="hardAlpha"/>
<feOffset dy="4"/>
<feGaussianBlur stdDeviation="2"/>
<feComposite in2="hardAlpha" operator="out"/>
<feColorMatrix type="matrix" values="0 0 0 0 0 0 0 0 0 0 0 0 0 0 0 0 0 0 0.25 0"/>
<feBlend mode="normal" in2="BackgroundImageFix" result="effect1_dropShadow_5716_1662"/>
<feBlend mode="normal" in="SourceGraphic" in2="effect1_dropShadow_5716_1662" result="shape"/>
</filter>
<filter id="filter3_d_5716_1662" x="0" y="0" width="27" height="26" filterUnits="userSpaceOnUse" color-interpolation-filters="sRGB">
<feFlood flood-opacity="0" result="BackgroundImageFix"/>
<feColorMatrix in="SourceAlpha" type="matrix" values="0 0 0 0 0 0 0 0 0 0 0 0 0 0 0 0 0 0 127 0" result="hardAlpha"/>
<feOffset dy="4"/>
<feGaussianBlur stdDeviation="2"/>
<feComposite in2="hardAlpha" operator="out"/>
<feColorMatrix type="matrix" values="0 0 0 0 0 0 0 0 0 0 0 0 0 0 0 0 0 0 0.25 0"/>
<feBlend mode="normal" in2="BackgroundImageFix" result="effect1_dropShadow_5716_1662"/>
<feBlend mode="normal" in="SourceGraphic" in2="effect1_dropShadow_5716_1662" result="shape"/>
</filter>
<filter id="filter4_d_5716_1662" x="25" y="0" width="27" height="26" filterUnits="userSpaceOnUse" color-interpolation-filters="sRGB">
<feFlood flood-opacity="0" result="BackgroundImageFix"/>
<feColorMatrix in="SourceAlpha" type="matrix" values="0 0 0 0 0 0 0 0 0 0 0 0 0 0 0 0 0 0 127 0" result="hardAlpha"/>
<feOffset dy="4"/>
<feGaussianBlur stdDeviation="2"/>
<feComposite in2="hardAlpha" operator="out"/>
<feColorMatrix type="matrix" values="0 0 0 0 0 0 0 0 0 0 0 0 0 0 0 0 0 0 0.25 0"/>
<feBlend mode="normal" in2="BackgroundImageFix" result="effect1_dropShadow_5716_1662"/>
<feBlend mode="normal" in="SourceGraphic" in2="effect1_dropShadow_5716_1662" result="shape"/>
</filter>
</defs>
</svg>
