<svg width="21" height="20" viewBox="0 0 21 20" fill="none" xmlns="http://www.w3.org/2000/svg">
<g clip-path="url(#clip0_5756_38233)">
<path d="M10.4891 17.3675C6.42617 17.3675 3.1325 14.0738 3.1325 10.011C3.1325 5.94815 6.42617 2.65455 10.4891 2.65455C14.5519 2.65455 17.8455 5.94815 17.8455 10.011C17.8455 14.0738 14.5519 17.3675 10.4891 17.3675V17.3675ZM10.4891 0.0219727C4.97227 0.0219727 0.5 4.49432 0.5 10.011C0.5 15.5278 4.97227 20 10.4891 20C16.0058 20 20.478 15.5278 20.478 10.011C20.478 4.49432 16.0058 0.0219727 10.489 0.0219727H10.4891Z" fill="#CF272D"/>
<path d="M10.8997 7.52324C10.8997 6.37621 11.8296 5.44629 12.9767 5.44629C14.1238 5.44629 15.0537 6.37621 15.0537 7.52324C15.0537 8.67043 14.1238 9.60027 12.9767 9.60027C11.8296 9.60027 10.8997 8.67043 10.8997 7.52324V7.52324ZM10.8997 12.4987C10.8997 11.3517 11.8296 10.4217 12.9767 10.4217C14.1238 10.4217 15.0537 11.3517 15.0537 12.4987C15.0537 13.6458 14.1238 14.5757 12.9767 14.5757C11.8296 14.5757 10.8997 13.6458 10.8997 12.4987V12.4987ZM5.92432 12.4987C5.92432 11.3517 6.85432 10.4217 8.00135 10.4217C9.14846 10.4217 10.0784 11.3517 10.0784 12.4987C10.0784 13.6458 9.14846 14.5757 8.00135 14.5757C6.85432 14.5757 5.92432 13.6458 5.92432 12.4987ZM5.92432 7.52332C5.92432 6.37621 6.85432 5.44637 8.00135 5.44637C9.14846 5.44637 10.0784 6.37621 10.0784 7.52332C10.0784 8.67051 9.14846 9.60035 8.00135 9.60035C6.85432 9.60035 5.92432 8.67051 5.92432 7.52332Z" fill="#CF272D"/>
</g>
<defs>
<clipPath id="clip0_5756_38233">
<rect width="20" height="20" fill="white" transform="translate(0.5)"/>
</clipPath>
</defs>
</svg>
